# xmcd
#
# Track frame offsets:
#	150
#	17096
#	42248
#	66061
#	84759
#	106665
#	128916
#	144682
#	166430
#	182371
#	202117
#	214236
#	239533
#
# Disc length: 3394 seconds
#
# Revision: 1
# Processed by: cddbd v1.4PL0 Copyright (c) Steve Scherf et al.
# Submitted via: CDmax 2.0
#
DISCID=b10d400d
DTITLE=Chicago Brother And Sister Blues Band - Volume 2
DYEAR=2000
DGENRE=Blues
TTITLE0=Got My Mojo Workin'
TTITLE1=The Blues Follow Me
TTITLE2=Ode To Billy Joe
TTITLE3=Goin' To New York
TTITLE4=You Reached Your Goal
TTITLE5=One Of These Days
TTITLE6=Mama He Treats Your Daughter Mean
TTITLE7=Rock Me Baby
TTITLE8=Sweet Home Chicago
TTITLE9=Little Red Rooster
TTITLE10=Tell Me Baby
TTITLE11=Gotta Leave This Town
TTITLE12=Everyday I Have The Blues
EXTD=
EXTT0=
EXTT1=
EXTT2=
EXTT3=
EXTT4=
EXTT5=
EXTT6=
EXTT7=
EXTT8=
EXTT9=
EXTT10=
EXTT11=
EXTT12=
PLAYORDER=
